<svg xmlns="http://www.w3.org/2000/svg" width="24.994" height="24.992" viewBox="0 0 24.994 24.992">
  <g id="bx-navigation" transform="translate(-16.003 -24.737)">
    <path id="Path_76" data-name="Path 76" d="M16.005,33.323a1.314,1.314,0,0,0,.763,1.269l9.854,4.52,4.52,9.853a1.316,1.316,0,0,0,1.194.766l.075,0a1.313,1.313,0,0,0,1.174-.9L40.932,26.46A1.314,1.314,0,0,0,39.273,24.8L16.906,32.149A1.313,1.313,0,0,0,16.005,33.323Zm21.62-5.215L32.134,44.825l-3.328-7.251a1.311,1.311,0,0,0-.646-.646L20.906,33.6l16.719-5.492Z" transform="translate(0 0)" fill="#fff"/>
  </g>
</svg>
