<svg xmlns="http://www.w3.org/2000/svg" width="22.047" height="18.897" viewBox="0 0 22.047 18.897">
  <g id="mail-all" transform="translate(-12 -30)">
    <path id="Path_73" data-name="Path 73" d="M99.488,115.11l2.819,2.827-2.827,2.827,1.118,1.11,3.937-3.937L100.6,114Z" transform="translate(-76 -72.977)" fill="#fff"/>
    <path id="Path_74" data-name="Path 74" d="M141.488,115.11l2.819,2.827-2.827,2.827,1.118,1.11,3.937-3.937L142.6,114Z" transform="translate(-112.488 -72.977)" fill="#fff"/>
    <path id="Path_75" data-name="Path 75" d="M21.449,44.173H13.575V32.291l9,6.228a.787.787,0,0,0,.9,0l9-6.228v7.157h1.575V31.575A1.575,1.575,0,0,0,32.472,30h-18.9A1.575,1.575,0,0,0,12,31.575v12.6a1.575,1.575,0,0,0,1.575,1.575h7.874Zm9.291-12.6-7.716,5.338-7.716-5.338Z" transform="translate(0)" fill="#fff"/>
  </g>
</svg>
