<?xml version="1.0" encoding="utf-8"?>
<!-- Generator: Adobe Illustrator 26.2.1, SVG Export Plug-In . SVG Version: 6.00 Build 0)  -->
<svg version="1.1" id="Layer_1" xmlns="http://www.w3.org/2000/svg" xmlns:xlink="http://www.w3.org/1999/xlink" x="0px" y="0px"
	 viewBox="0 0 512 512" style="enable-background:new 0 0 512 512;" xml:space="preserve">
<style type="text/css">
	.st0{fill:#020202;}
	.st1{fill:#FFFFFF;}
</style>
<g>
	<path class="st0" d="M369.08,433.05c-5.59,5.45-12.23,7.21-19.98,6.78c-9.55-0.54-19.14-0.35-28.71-0.3
		c-6.72,0.04-11.78-3.1-10.12-9.81c6.06-24.39,1.19-48.69,0.66-73.02c-0.02-0.74-0.22-1.57,0.03-2.21
		c6.67-17.09-3.33-24.91-16.68-31.52c-6.49-3.22-12.24-7.94-18.33-11.98c-3.82,6.19-7.76,12.31-11.43,18.58
		c-9.28,15.85-20.69,28.14-40.33,31.19c-9.59,1.49-18.53,6.97-27.91,10.23c-19.39,6.73-32.67,19.27-38.77,39.29
		c-1.09,3.59-2,9.17-7.1,8.46c-5.27-0.74-7.63-5.39-7.5-10.82c0.32-12.95,0.32-25.92,1.24-38.83c0.46-6.45,4.37-9.92,11.55-7.83
		c12.02,3.5,22.29-0.21,31.98-7.61c9.09-6.94,18.9-12.97,29.96-16.25c4.64-1.38,5.92-4.65,7.73-8.45
		c9.44-19.78,10.86-40.58,8.05-61.86c-1.54-11.66-0.23-22.65,3.68-33.74c5.04-14.3,4.06-15.31-9.51-20.85
		c-10.54-4.3-20.85-9.15-31.21-13.9c-9.81-4.5-12.97-12.59-8.58-21.94c11.86-25.28,30.95-43.4,58.07-50.46
		c20.41-5.31,21.72-5.53,16.72-25.43c-3.82-15.2-2.29-19.13,11.18-28.66c5.91,0,11.82,0,17.73,0c15.96,3.73,16.48,17.82,18.22,29.76
		c1.44,9.88-1.01,20.04-11.08,25.84c-3.27,1.89-6.02,4.45-2.62,7.74c14.11,13.64,12.05,31.04,11.39,48.01
		c-0.23,6,1.06,7.91,7.32,6.8c7.19-1.28,13.63,0.28,14.22,9.48c0.56,8.73-6.23,18.34-13.77,16.9c-12.76-2.44-12.54,5.58-15.54,13.85
		c-7.46,20.6-2.76,36.03,14.71,49.13c10.94,8.2,19.04,19.54,25.93,31.57c6.61,11.54,8.75,23.11,3.95,36.15
		c-5.54,15.03-8.05,30.78-7.72,46.93c0.26,12.65,6.09,20.98,17.96,25.19c5.5,1.95,11.56,3.14,14.59,9.14
		C369.08,430.08,369.08,431.57,369.08,433.05z"/>
	<path class="st0" d="M212.81,225.8c-6.88,19.84-2.92,38.78,2.76,57.77c2.74,9.18,4.97,18.57,6.68,28.01
		c1.81,9.98-1.45,17.34-12.24,20.15c-12,3.13-21.28,11.12-31.52,17.94c4.81-11.82,13.42-20.71,24.87-25.29
		c10.13-4.05,9.74-10.61,7.84-18.45c-2.95-12.19-6.97-24.14-9.44-36.41C198.53,253.48,200.66,238.28,212.81,225.8z"/>
	<path class="st0" d="M174.52,392.6c16.31-11.26,31.65-18.17,47.84-22.84c17.47-5.04,34.93-9.56,44.22-29.3
		c2.39,11.55-0.78,19.09-9.1,24.85c-6.79,4.7-14.67,6.79-22.39,9.05c-18.19,5.34-36.52,10.2-53.72,18.46
		C180.2,393.38,178.5,392.77,174.52,392.6z"/>
	<path class="st0" d="M281.19,324.81c7.51,4.05,13.93,7.33,20.12,11c1.32,0.78,2.81,3.22,2.53,4.52
		c-3.3,15.02-0.07,29.91,0.71,44.97c-7.36-8.62-8.62-19.16-9.2-29.48c-0.54-9.65-2.5-17.85-10.98-23.52
		C282.69,331.18,280.89,329.48,281.19,324.81z"/>
	<path class="st0" d="M184.71,202.09c-11.42-4.52-15.29-10.97-14.96-19.13c0.65-16.07,11.13-25.98,23.46-34.75
		C185.27,164.55,170.29,179.08,184.71,202.09z"/>
	<path class="st1" d="M238.42,198.04c-3.14-1.59-4.76-2.28-6.25-3.19c-6.81-4.18-17.05-7.45-17.22-15.47
		c-0.17-8.36,11-10.1,18.03-16.05C235.18,175.03,238.27,185.31,238.42,198.04z"/>
	<path class="st0" d="M319.2,149.54c7.9,5.61,12.95,12.68,13.52,20.65c0.64,8.98,4.29,15.87,8.33,23.35
		c14.73,27.27,5.33,63.85-19.68,78.41c-1.78,1.04-3.81,1.66-5.54,2.41c-2.82-3.56,0.36-4.43,1.64-5.68
		c21.26-20.66,25.45-49.19,10.67-75c-3.35-5.85-6.72-10.99-3.71-18.48c1.96-4.86-1.1-10.02-3-14.89
		C320.21,157.18,316.27,154.58,319.2,149.54z"/>
	<path class="st0" d="M339.39,298.46c25.48,13.15,28.14,41.67,7.27,66.37c-1.27-12.66,5.46-22.69,5.58-33.81
		C352.37,319.1,345.37,310.42,339.39,298.46z"/>
</g>
</svg>
